<svg xmlns="http://www.w3.org/2000/svg" xmlns:xlink="http://www.w3.org/1999/xlink" xmlns:lucid="lucid" width="1980" height="1054"><g transform="translate(-280 -20)" lucid:page-tab-id="0_0"><path d="M882 161.5c0 43.35-35.15 78.5-78.5 78.5S725 204.85 725 161.5 760.15 83 803.5 83s78.5 35.15 78.5 78.5z" stroke="#5e5e5e" stroke-width="3"/><path d="M888.72 901.5c32.12 0 58.15 26.86 58.15 60s-26.03 60-58.15 60H714.28c-32.12 0-58.15-26.86-58.15-60s26.03-60 58.15-60z" stroke="#5e5e5e" stroke-width="3" fill="#fff"/><use xlink:href="#a" transform="matrix(1,0,0,1,661.1292191676837,906.5015355726839) translate(64.39388888888891 45.39583333333333)"/><use xlink:href="#b" transform="matrix(1,0,0,1,661.1292191676837,906.5015355726839) translate(106.7087037037037 77.39583333333333)"/><path d="M800 746c0-3.3 2.7-6 6-6h248c3.3 0 6 2.7 6 6v52.67c0 3.3-2.7 6-6 6H806c-3.3 0-6-2.7-6-6z" stroke="#000" stroke-opacity="0" stroke-width="3" fill="#fff" fill-opacity="0"/><use xlink:href="#c" transform="matrix(1,0,0,1,805,745) translate(3.919753086419803 31.52777777777778)"/><path d="M661.83 930.14l-4.4-2.8-5.17-3.58-5.13-3.9-5.07-4.18-5-4.5-4.96-4.84-4.88-5.2-4.8-5.55-4.7-5.95-4.63-6.34-4.5-6.74-4.34-7.16-4.17-7.6-4-7.98-3.73-8.4-3.5-8.8-3.17-9.12-2.86-9.44-2.5-9.68-2.1-9.88-1.7-10-1.27-10.03-.85-10-.42-9.9v-9.7l.38-9.47.76-9.18 1.12-8.85 1.42-8.5 1.72-8.1 1.98-7.73 2.2-7.34 2.42-6.95 2.6-6.58 2.76-6.2 2.9-5.88 3.05-5.54 3.16-5.23 3.27-4.92 3.37-4.64 3.46-4.38 3.56-4.13 3.66-3.9 3.74-3.67 3.84-3.46 3.94-3.26 4.04-3.07 4.15-2.9 4.26-2.7 4.13-2.4" stroke="#834187" stroke-width="2" fill="none"/><path d="M663.2 929.82l-.93 1.54-.1.18-.9-.57 1.08-1.7" fill="#834187"/><path d="M659.74 603.53l-11.02 10.17-3.88-8.42z" stroke="#834187" stroke-width="2" fill="#834187"/><path d="M1692.6 901.5c32.1 0 58.14 26.86 58.14 60s-26.03 60-58.15 60h-174.45c-32.12 0-58.15-26.86-58.15-60s26.03-60 58.15-60z" stroke="#5e5e5e" stroke-width="3" fill="#fff"/><use xlink:href="#d" transform="matrix(1,0,0,1,1464.9999999999998,906.5015355726839) translate(73.90740740740742 59.14583333333333)"/><use xlink:href="#e" transform="matrix(1,0,0,1,1464.9999999999998,906.5015355726839) translate(140.5 59.14583333333333)"/><path d="M949.38 961.5H1440" stroke="#0c7cba" stroke-width="2" fill="none"/><path d="M949.4 962.5h-1.07l.04-1-.03-1h1.07" fill="#0c7cba"/><path d="M1455.26 961.5l-14.26 4.64v-9.27z" stroke="#0c7cba" stroke-width="2" fill="#0c7cba"/><path d="M1066.72 907.5c0-3.3 2.68-6 6-6h261.43c3.32 0 6 2.7 6 6v52.67c0 3.3-2.68 6-6 6h-261.43c-3.32 0-6-2.7-6-6z" stroke="#000" stroke-opacity="0" stroke-width="3" fill="#fff" fill-opacity="0"/><use xlink:href="#f" transform="matrix(1,0,0,1,1071.7181618719746,906.5015355726839) translate(38.01851851851855 31.52777777777778)"/><path d="M1692.6 520c32.1 0 58.14 26.86 58.14 60s-26.03 60-58.15 60h-174.45c-32.12 0-58.15-26.86-58.15-60s26.03-60 58.15-60z" stroke="#5e5e5e" stroke-width="3" fill="#fff"/><use xlink:href="#g" transform="matrix(1,0,0,1,1464.9999999999998,525) translate(94.64814814814815 59.14583333333333)"/><path d="M953.38 580H1440" stroke="#834187" stroke-width="2" fill="none"/><path d="M953.4 581h-1.07l.04-1-.03-1h1.07" fill="#834187"/><path d="M1455.26 580l-14.26 4.64v-9.28z" stroke="#834187" stroke-width="2" fill="#834187"/><path d="M1605.37 899V660" stroke="#0c7cba" stroke-width="2" fill="none"/><path d="M1606.37 900h-2v-1.03h2" fill="#0c7cba"/><path d="M1605.37 644.74L1610 659h-9.26z" stroke="#0c7cba" stroke-width="2" fill="#0c7cba"/><path d="M1467.4 927.35L958.52 615.7" stroke="#834187" stroke-width="2" fill="none"/><path d="M1468.76 927.02l-1.04 1.7-.88-.53 1.05-1.72" fill="#834187"/><path d="M945.52 607.73l14.58 3.5-4.84 7.9z" stroke="#834187" stroke-width="2" fill="#834187"/><path d="M1052.9 598.23c1.75-2.82 5.45-3.68 8.27-1.94l368.2 228.38c2.8 1.74 3.67 5.44 1.92 8.26l-50.95 82.12c-1.74 2.82-5.44 3.7-8.26 1.94l-368.2-228.4c-2.8-1.73-3.68-5.43-1.93-8.25z" stroke="#000" stroke-opacity="0" stroke-width="3" fill="#fff" fill-opacity="0"/><use xlink:href="#h" transform="matrix(0.8497934012188352,0.5271159030468763,-0.5271159030468763,0.8497934012188352,1057.683186815826,600.0137385082953) translate(161.14814814814815 54.90277777777778)"/><path d="M453.33 760h123.7v36.67h-123.7z" fill="#fff" fill-opacity="0"/><use xlink:href="#h" transform="matrix(1,0,0,1,458.33333333333326,765) translate(0 17.77777777777778)"/><path d="M1753.25 580.02l2.77.06 3.66.23 3.57.38 3.47.52 3.4.65 3.35.78 3.28.92 3.25 1.05 3.2 1.2 3.2 1.34 3.16 1.5 3.16 1.64 3.15 1.82 3.16 2 3.16 2.2 3.17 2.42 3.2 2.64 3.23 2.9 3.25 3.2 3.3 3.5 3.32 3.86 3.36 4.25 3.4 4.67 3.43 5.16 3.45 5.7 3.47 6.3 3.46 6.98 3.42 7.7 3.37 8.5 3.26 9.38 3.1 10.3 2.88 11.2 2.58 12.18 2.2 13.04 1.75 13.83 1.2 14.45.62 14.83v14.97l-.63 14.84-1.22 14.43-1.74 13.82-2.2 13.05-2.6 12.16-2.87 11.22-3.1 10.28-3.26 9.37-3.36 8.5-3.42 7.7-3.46 6.98-3.46 6.3-3.45 5.7-3.43 5.17-3.4 4.68-3.36 4.24-3.32 3.84-3.3 3.5-3.25 3.2-3.24 2.9-3.2 2.65-3.18 2.4-3.16 2.2-3.16 2-3.15 1.83-3.15 1.65-3.16 1.5-3.2 1.33-3.2 1.2-3.25 1.06-3.3.9-2.84.68" stroke="#0c7cba" stroke-width="2" fill="none"/><path d="M1753.3 579.02l-.05 2-1.05-.02.04-1-.03-1" fill="#0c7cba"/><path d="M1755.46 961.16l13.7-6.12.98 9.2z" stroke="#0c7cba" stroke-width="2" fill="#0c7cba"/><path d="M1870.87 760h123.7v36.67h-123.7z" fill="#fff" fill-opacity="0"/><use xlink:href="#f" transform="matrix(1,0,0,1,1875.8661417322833,765) translate(0 17.77777777777778)"/><path d="M1420 46c0-3.3 2.7-6 6-6h808c3.3 0 6 2.7 6 6v229.33c-136.94-39.3-222.22-39.3-273.88-39.3-82 0-191.06 39.3-273.06 39.3-50.84 0-136.94 0-273.06-39.3z" stroke="#5e5e5e" stroke-width="3" fill="#fff"/><use xlink:href="#i" transform="matrix(1,0,0,1,1425,45) translate(13.358024691358423 37.843749999999986)"/><use xlink:href="#j" transform="matrix(1,0,0,1,1425,45) translate(119.13580246913612 37.843749999999986)"/><use xlink:href="#k" transform="matrix(1,0,0,1,1425,45) translate(205.16049382716074 37.843749999999986)"/><use xlink:href="#l" transform="matrix(1,0,0,1,1425,45) translate(218.67901234567924 37.843749999999986)"/><use xlink:href="#m" transform="matrix(1,0,0,1,1425,45) translate(331.58024691358037 37.843749999999986)"/><use xlink:href="#n" transform="matrix(1,0,0,1,1425,45) translate(374.7901234567902 37.843749999999986)"/><use xlink:href="#o" transform="matrix(1,0,0,1,1425,45) translate(416.7654320987655 37.843749999999986)"/><use xlink:href="#p" transform="matrix(1,0,0,1,1425,45) translate(463.61728395061726 37.843749999999986)"/><use xlink:href="#q" transform="matrix(1,0,0,1,1425,45) translate(494.4814814814814 37.843749999999986)"/><use xlink:href="#r" transform="matrix(1,0,0,1,1425,45) translate(589.4814814814813 37.843749999999986)"/><use xlink:href="#s" transform="matrix(1,0,0,1,1425,45) translate(684.3580246913577 37.843749999999986)"/><use xlink:href="#t" transform="matrix(1,0,0,1,1425,45) translate(765.7777777777774 37.843749999999986)"/><use xlink:href="#u" transform="matrix(1,0,0,1,1425,45) translate(138.70370370370392 71.62152777777774)"/><use xlink:href="#v" transform="matrix(1,0,0,1,1425,45) translate(194.13580246913597 71.62152777777774)"/><use xlink:href="#w" transform="matrix(1,0,0,1,1425,45) translate(291.4814814814815 71.62152777777774)"/><use xlink:href="#x" transform="matrix(1,0,0,1,1425,45) translate(374.0740740740741 71.62152777777774)"/><use xlink:href="#y" transform="matrix(1,0,0,1,1425,45) translate(419.75308641975306 71.62152777777774)"/><use xlink:href="#s" transform="matrix(1,0,0,1,1425,45) translate(445.6172839506172 71.62152777777774)"/><use xlink:href="#z" transform="matrix(1,0,0,1,1425,45) translate(527.037037037037 71.62152777777774)"/><use xlink:href="#A" transform="matrix(1,0,0,1,1425,45) translate(612.0987654320986 71.62152777777774)"/><use xlink:href="#B" transform="matrix(1,0,0,1,1425,45) translate(30.333333333333712 112.51041666666661)"/><use xlink:href="#C" transform="matrix(1,0,0,1,1425,45) translate(110.92592592592625 112.51041666666661)"/><use xlink:href="#k" transform="matrix(1,0,0,1,1425,45) translate(196.95061728395086 112.51041666666661)"/><use xlink:href="#l" transform="matrix(1,0,0,1,1425,45) translate(210.46913580246937 112.51041666666661)"/><use xlink:href="#m" transform="matrix(1,0,0,1,1425,45) translate(323.3703703703705 112.51041666666661)"/><use xlink:href="#D" transform="matrix(1,0,0,1,1425,45) translate(366.5802469135803 112.51041666666661)"/><use xlink:href="#E" transform="matrix(1,0,0,1,1425,45) translate(404.7901234567902 112.51041666666661)"/><use xlink:href="#q" transform="matrix(1,0,0,1,1425,45) translate(454.17283950617286 112.51041666666661)"/><use xlink:href="#s" transform="matrix(1,0,0,1,1425,45) translate(549.1728395061727 112.51041666666661)"/><use xlink:href="#F" transform="matrix(1,0,0,1,1425,45) translate(630.5925925925924 112.51041666666661)"/><use xlink:href="#G" transform="matrix(1,0,0,1,1425,45) translate(667.6296296296293 112.51041666666661)"/><use xlink:href="#H" transform="matrix(1,0,0,1,1425,45) translate(22.19135802469168 146.2881944444444)"/><use xlink:href="#I" transform="matrix(1,0,0,1,1425,45) translate(139.22839506172863 146.2881944444444)"/><use xlink:href="#J" transform="matrix(1,0,0,1,1425,45) translate(197.1296296296298 146.2881944444444)"/><use xlink:href="#F" transform="matrix(1,0,0,1,1425,45) translate(221.82098765432113 146.2881944444444)"/><use xlink:href="#K" transform="matrix(1,0,0,1,1425,45) translate(258.85802469135814 146.2881944444444)"/><use xlink:href="#L" transform="matrix(1,0,0,1,1425,45) translate(417.62345679012344 146.2881944444444)"/><use xlink:href="#n" transform="matrix(1,0,0,1,1425,45) translate(460.83333333333326 146.2881944444444)"/><use xlink:href="#M" transform="matrix(1,0,0,1,1425,45) translate(502.80864197530855 146.2881944444444)"/><use xlink:href="#p" transform="matrix(1,0,0,1,1425,45) translate(549.6604938271604 146.2881944444444)"/><use xlink:href="#q" transform="matrix(1,0,0,1,1425,45) translate(580.5246913580246 146.2881944444444)"/><use xlink:href="#s" transform="matrix(1,0,0,1,1425,45) translate(675.5246913580245 146.2881944444444)"/><use xlink:href="#N" transform="matrix(1,0,0,1,1425,45) translate(756.9444444444441 146.2881944444444)"/><use xlink:href="#O" transform="matrix(1,0,0,1,1425,45) translate(267.5617283950619 172.95486111111106)"/><use xlink:href="#P" transform="matrix(1,0,0,1,1425,45) translate(322.99382716049394 172.95486111111106)"/><use xlink:href="#Q" transform="matrix(1,0,0,1,1425,45) translate(420.3395061728395 172.95486111111106)"/><use xlink:href="#R" transform="matrix(1,0,0,1,1425,45) translate(502.93209876543204 172.95486111111106)"/><path d="M892.72 520c32.12 0 58.15 26.86 58.15 60s-26.03 60-58.15 60H718.28c-32.12 0-58.15-26.86-58.15-60s26.03-60 58.15-60z" stroke="#5e5e5e" stroke-width="3" fill="#fff"/><g><use xlink:href="#S" transform="matrix(1,0,0,1,665.1292191676837,524.9999999999999) translate(100.7962962962963 59.14583333333333)"/></g><path d="M890.72 320c32.12 0 58.15 26.86 58.15 60s-26.03 60-58.15 60H716.28c-32.12 0-58.15-26.86-58.15-60s26.03-60 58.15-60z" stroke="#5e5e5e" stroke-width="3" fill="#fff"/><g><use xlink:href="#T" transform="matrix(1,0,0,1,663.1292191676837,325) translate(113.9074074074074 59.14583333333333)"/></g><path d="M803.5 442.5V500" stroke="#0c7cba" stroke-width="2" fill="none"/><path d="M804.5 442.53h-2v-1.03h2" fill="#0c7cba"/><path d="M803.5 515.26L798.87 501h9.27z" stroke="#0c7cba" stroke-width="2" fill="#0c7cba"/><path d="M657.63 579.98l-1.05-.02-1.97-.13-1.9-.2-1.83-.27-1.8-.34-1.73-.4-1.7-.48-1.67-.54-1.64-.6-1.6-.7-1.6-.74-1.57-.82-1.55-.9-1.54-.98-1.53-1.07-1.53-1.17-1.53-1.26-1.52-1.37-1.52-1.5-1.53-1.62-1.52-1.77-1.53-1.9-1.52-2.1-1.53-2.3-1.5-2.5-1.52-2.75-1.5-3-1.45-3.3-1.42-3.58-1.35-3.92-1.3-4.28-1.2-4.64-1.05-5.03-.92-5.4-.72-5.77-.5-6.08-.28-6.36v-6.57l.28-6.66.56-6.68.84-6.6 1.08-6.42 1.3-6.17 1.52-5.85 1.66-5.52 1.8-5.15 1.9-4.78 1.95-4.42 2.02-4.05 2.03-3.73 2.07-3.4 2.07-3.13 2.07-2.86 2.07-2.6 2.07-2.38 2.05-2.2 2.04-2 2.03-1.8 2-1.7 2.03-1.5.18-.14" stroke="#834187" stroke-width="2" fill="none"/><path d="M658.67 579l-.04 1 .03 1-1.08-.02.04-2" fill="#834187"/><path d="M655.73 397.17l-10.75 10.46-4.1-8.3z" stroke="#834187" stroke-width="2" fill="#834187"/><path d="M803.5 242.5V300" stroke="#0c7cba" stroke-width="2" fill="none"/><path d="M803.5 241.5l1-.02v1.05h-2v-1.06" fill="#0c7cba"/><path d="M803.5 315.26L798.87 301h9.27z" stroke="#0c7cba" stroke-width="2" fill="#0c7cba"/><path d="M1605.37 1024v33c0 3.32 2.7 6 6 6H2094c3.3 0 6-2.68 6-6V386c0-3.3-2.7-6-6-6H968.88" stroke="#834187" stroke-width="2" fill="none"/><path d="M1606.37 1024.03h-2V1023h2" fill="#834187"/><path d="M953.6 380l14.28-4.64v9.28z" stroke="#834187" stroke-width="2" fill="#834187"/><path d="M801.5 1024v33c0 3.32-2.7 6-6 6H426c-3.3 0-6-2.68-6-6V386c0-3.3 2.7-6 6-6h212.13" stroke="#0c7cba" stroke-width="2" fill="none"/><path d="M802.5 1024.03h-2V1023h2" fill="#0c7cba"/><path d="M653.4 380l-14.27 4.64v-9.28z" stroke="#0c7cba" stroke-width="2" fill="#0c7cba"/><path d="M1608 752c0-3.3 2.7-6 6-6h58.87c3.3 0 6 2.7 6 6v52.67c0 3.3-2.7 6-6 6H1614c-3.3 0-6-2.7-6-6z" stroke="#000" stroke-opacity="0" stroke-width="3" fill="#fff" fill-opacity="0"/><g><use xlink:href="#U" transform="matrix(1,0,0,1,1613,751) translate(-0.8580246913580218 31.944444444444443)"/></g><path d="M1169 540.67c0-3.32 2.7-6 6-6h58.87c3.3 0 6 2.68 6 6v52.66c0 3.32-2.7 6-6 6H1175c-3.3 0-6-2.68-6-6z" stroke="#000" stroke-opacity="0" stroke-width="3" fill="#fff" fill-opacity="0"/><g><use xlink:href="#U" transform="matrix(1,0,0,1,1174.0032528778074,539.6666666666666) translate(-0.8580246913580218 31.944444444444443)"/></g><path d="M484 476c0-3.3 2.7-6 6-6h105.04c3.3 0 6 2.7 6 6v52.67c0 3.3-2.7 6-6 6H490c-3.3 0-6-2.7-6-6z" stroke="#000" stroke-opacity="0" stroke-width="3" fill="#fff" fill-opacity="0"/><g><use xlink:href="#V" transform="matrix(1,0,0,1,489,474.9999999999999) translate(0.7283950617283921 31.52777777777778)"/></g><path d="M300 706c0-3.3 2.7-6 6-6h105.04c3.3 0 6 2.7 6 6v52.67c0 3.3-2.7 6-6 6H306c-3.3 0-6-2.7-6-6z" stroke="#000" stroke-opacity="0" stroke-width="3" fill="#fff" fill-opacity="0"/><g><use xlink:href="#V" transform="matrix(1,0,0,1,305,705) translate(0.7283950617283921 31.52777777777778)"/></g><path d="M2100 706c0-3.3 2.7-6 6-6h105.04c3.3 0 6 2.7 6 6v52.67c0 3.3-2.7 6-6 6H2106c-3.3 0-6-2.7-6-6z" stroke="#000" stroke-opacity="0" stroke-width="3" fill="#fff" fill-opacity="0"/><g><use xlink:href="#V" transform="matrix(1,0,0,1,2105,705) translate(0.7283950617283921 31.52777777777778)"/></g><path d="M780 453.67c0-3.32 2.7-6 6-6h105.04c3.3 0 6 2.68 6 6v52.66c0 3.32-2.7 6-6 6H786c-3.3 0-6-2.68-6-6z" stroke="#000" stroke-opacity="0" stroke-width="3" fill="#fff" fill-opacity="0"/><g><use xlink:href="#W" transform="matrix(1,0,0,1,785,452.66666666666663) translate(23.290123456790127 31.52777777777778)"/></g><path d="M805.5 642.5v239" stroke="#0c7cba" stroke-width="2" fill="none"/><path d="M806.5 642.53h-2v-1.03h2" fill="#0c7cba"/><path d="M805.5 896.77l-4.63-14.27h9.27z" stroke="#0c7cba" stroke-width="2" fill="#0c7cba"/><defs><path fill="#333" d="M30-248c87 1 191-15 191 75 0 78-77 80-158 76V0H30v-248zm33 125c57 0 124 11 124-50 0-59-68-47-124-48v98" id="X"/><path fill="#333" d="M100-194c62-1 85 37 85 99 1 63-27 99-86 99S16-35 15-95c0-66 28-99 85-99zM99-20c44 1 53-31 53-75 0-43-8-75-51-75s-53 32-53 75 10 74 51 75" id="Y"/><path fill="#333" d="M206 0h-36l-40-164L89 0H53L-1-190h32L70-26l43-164h34l41 164 42-164h31" id="Z"/><path fill="#333" d="M100-194c63 0 86 42 84 106H49c0 40 14 67 53 68 26 1 43-12 49-29l28 8c-11 28-37 45-77 45C44 4 14-33 15-96c1-61 26-98 85-98zm52 81c6-60-76-77-97-28-3 7-6 17-6 28h103" id="aa"/><path fill="#333" d="M114-163C36-179 61-72 57 0H25l-1-190h30c1 12-1 29 2 39 6-27 23-49 58-41v29" id="ab"/><path fill="#333" d="M16-82v-28h88v28H16" id="ac"/><path fill="#333" d="M30-248c118-7 216 8 213 122C240-48 200 0 122 0H30v-248zM63-27c89 8 146-16 146-99s-60-101-146-95v194" id="ad"/><path fill="#333" d="M117-194c89-4 53 116 60 194h-32v-121c0-31-8-49-39-48C34-167 62-67 57 0H25l-1-190h30c1 10-1 24 2 32 11-22 29-35 61-36" id="ae"/><g id="a"><use transform="matrix(0.07407407407407407,0,0,0.07407407407407407,0,0)" xlink:href="#X"/><use transform="matrix(0.07407407407407407,0,0,0.07407407407407407,17.77777777777778,0)" xlink:href="#Y"/><use transform="matrix(0.07407407407407407,0,0,0.07407407407407407,32.592592592592595,0)" xlink:href="#Z"/><use transform="matrix(0.07407407407407407,0,0,0.07407407407407407,51.77777777777777,0)" xlink:href="#aa"/><use transform="matrix(0.07407407407407407,0,0,0.07407407407407407,66.5925925925926,0)" xlink:href="#ab"/><use transform="matrix(0.07407407407407407,0,0,0.07407407407407407,75.4074074074074,0)" xlink:href="#ac"/><use transform="matrix(0.07407407407407407,0,0,0.07407407407407407,84.22222222222221,0)" xlink:href="#ad"/><use transform="matrix(0.07407407407407407,0,0,0.07407407407407407,103.40740740740739,0)" xlink:href="#Y"/><use transform="matrix(0.07407407407407407,0,0,0.07407407407407407,118.2222222222222,0)" xlink:href="#Z"/><use transform="matrix(0.07407407407407407,0,0,0.07407407407407407,137.4074074074074,0)" xlink:href="#ae"/></g><path fill="#333" d="M240 0l2-218c-23 76-54 145-80 218h-23L58-218 59 0H30v-248h44l77 211c21-75 51-140 76-211h43V0h-30" id="af"/><path fill="#333" d="M85-194c31 0 48 13 60 33l-1-100h32l1 261h-30c-2-10 0-23-3-31C134-8 116 4 85 4 32 4 16-35 15-94c0-66 23-100 70-100zm9 24c-40 0-46 34-46 75 0 40 6 74 45 74 42 0 51-32 51-76 0-42-9-74-50-73" id="ag"/><g id="b"><use transform="matrix(0.07407407407407407,0,0,0.07407407407407407,0,0)" xlink:href="#af"/><use transform="matrix(0.07407407407407407,0,0,0.07407407407407407,22.148148148148145,0)" xlink:href="#Y"/><use transform="matrix(0.07407407407407407,0,0,0.07407407407407407,36.96296296296296,0)" xlink:href="#ag"/><use transform="matrix(0.07407407407407407,0,0,0.07407407407407407,51.77777777777777,0)" xlink:href="#aa"/></g><path fill="#333" d="M67-125c0 54 23 88 75 88 28 0 53-7 68-21v-34h-60v-39h108v91C232-14 192 4 140 4 58 4 20-42 15-125 8-236 126-280 215-234c19 10 29 26 37 47l-47 15c-11-23-29-39-63-39-53 1-75 33-75 86" id="ah"/><path fill="#333" d="M110-194c64 0 96 36 96 99 0 64-35 99-97 99-61 0-95-36-95-99 0-62 34-99 96-99zm-1 164c35 0 45-28 45-65 0-40-10-65-43-65-34 0-45 26-45 65 0 36 10 65 43 65" id="ai"/><path fill="#333" d="M25-224v-37h50v37H25zM25 0v-190h50V0H25" id="aj"/><path fill="#333" d="M135-194c87-1 58 113 63 194h-50c-7-57 23-157-34-157-59 0-34 97-39 157H25l-1-190h47c2 12-1 28 3 38 12-26 28-41 61-42" id="ak"/><path fill="#333" d="M195-6C206 82 75 100 31 46c-4-6-6-13-8-21l49-6c3 16 16 24 34 25 40 0 42-37 40-79-11 22-30 35-61 35-53 0-70-43-70-97 0-56 18-96 73-97 30 0 46 14 59 34l2-30h47zm-90-29c32 0 41-27 41-63 0-35-9-62-40-62-32 0-39 29-40 63 0 36 9 62 39 62" id="al"/><path fill="#333" d="M-4 44V30h207v14H-4" id="am"/><path fill="#333" d="M136-208V0H84v-208H4v-40h212v40h-80" id="an"/><path fill="#333" d="M24-248c120-7 223 5 221 122C244-46 201 0 124 0H24v-248zM76-40c74 7 117-18 117-86 0-67-45-88-117-82v168" id="ao"/><path fill="#333" d="M185-48c-13 30-37 53-82 52C43 2 14-33 14-96s30-98 90-98c62 0 83 45 84 108H66c0 31 8 55 39 56 18 0 30-7 34-22zm-45-69c5-46-57-63-70-21-2 6-4 13-4 21h74" id="ap"/><path fill="#333" d="M135-194c53 0 70 44 70 98 0 56-19 98-73 100-31 1-45-17-59-34 3 33 2 69 2 105H25l-1-265h48c2 10 0 23 3 31 11-24 29-35 60-35zM114-30c33 0 39-31 40-66 0-38-9-64-40-64-56 0-55 130 0 130" id="aq"/><path fill="#333" d="M169-182c-1-43-94-46-97-3 18 66 151 10 154 114 3 95-165 93-204 36-6-8-10-19-12-30l50-8c3 46 112 56 116 5-17-69-150-10-154-114-4-87 153-88 188-35 5 8 8 18 10 28" id="ar"/><path fill="#333" d="M25 0v-261h50V0H25" id="as"/><path fill="#333" d="M67-93c0 74 22 123 53 168H70C40 30 18-18 18-93s22-123 52-168h50c-32 44-53 94-53 168" id="at"/><path fill="#333" d="M102-93c0 74-22 123-52 168H0C30 29 54-18 53-93c0-74-22-123-53-168h50c30 45 52 94 52 168" id="au"/><g id="c"><use transform="matrix(0.06172839506172839,0,0,0.06172839506172839,0,0)" xlink:href="#ah"/><use transform="matrix(0.06172839506172839,0,0,0.06172839506172839,17.28395061728395,0)" xlink:href="#ai"/><use transform="matrix(0.06172839506172839,0,0,0.06172839506172839,30.80246913580247,0)" xlink:href="#aj"/><use transform="matrix(0.06172839506172839,0,0,0.06172839506172839,36.97530864197531,0)" xlink:href="#ak"/><use transform="matrix(0.06172839506172839,0,0,0.06172839506172839,50.49382716049383,0)" xlink:href="#al"/><use transform="matrix(0.06172839506172839,0,0,0.06172839506172839,64.01234567901234,0)" xlink:href="#am"/><use transform="matrix(0.06172839506172839,0,0,0.06172839506172839,76.35802469135803,0)" xlink:href="#an"/><use transform="matrix(0.06172839506172839,0,0,0.06172839506172839,88.20987654320987,0)" xlink:href="#ai"/><use transform="matrix(0.06172839506172839,0,0,0.06172839506172839,101.72839506172839,0)" xlink:href="#am"/><use transform="matrix(0.06172839506172839,0,0,0.06172839506172839,114.07407407407408,0)" xlink:href="#ao"/><use transform="matrix(0.06172839506172839,0,0,0.06172839506172839,130.06172839506172,0)" xlink:href="#ap"/><use transform="matrix(0.06172839506172839,0,0,0.06172839506172839,142.4074074074074,0)" xlink:href="#ap"/><use transform="matrix(0.06172839506172839,0,0,0.06172839506172839,154.75308641975306,0)" xlink:href="#aq"/><use transform="matrix(0.06172839506172839,0,0,0.06172839506172839,168.27160493827157,0)" xlink:href="#ar"/><use transform="matrix(0.06172839506172839,0,0,0.06172839506172839,183.08641975308637,0)" xlink:href="#as"/><use transform="matrix(0.06172839506172839,0,0,0.06172839506172839,189.2592592592592,0)" xlink:href="#ap"/><use transform="matrix(0.06172839506172839,0,0,0.06172839506172839,201.60493827160488,0)" xlink:href="#ap"/><use transform="matrix(0.06172839506172839,0,0,0.06172839506172839,213.95061728395055,0)" xlink:href="#aq"/><use transform="matrix(0.06172839506172839,0,0,0.06172839506172839,227.46913580246905,0)" xlink:href="#at"/><use transform="matrix(0.06172839506172839,0,0,0.06172839506172839,234.81481481481472,0)" xlink:href="#au"/></g><path fill="#333" d="M33 0v-248h34V0H33" id="av"/><path fill="#333" d="M30 0v-248h33v221h125V0H30" id="aw"/><path fill="#333" d="M30 0v-248h187v28H63v79h144v27H63v87h162V0H30" id="ax"/><g id="d"><use transform="matrix(0.07407407407407407,0,0,0.07407407407407407,0,0)" xlink:href="#av"/><use transform="matrix(0.07407407407407407,0,0,0.07407407407407407,7.4074074074074066,0)" xlink:href="#ad"/><use transform="matrix(0.07407407407407407,0,0,0.07407407407407407,26.592592592592588,0)" xlink:href="#aw"/><use transform="matrix(0.07407407407407407,0,0,0.07407407407407407,41.407407407407405,0)" xlink:href="#ax"/></g><g id="e"><use transform="matrix(0.07407407407407407,0,0,0.07407407407407407,0,0)" xlink:href="#af"/><use transform="matrix(0.07407407407407407,0,0,0.07407407407407407,22.148148148148145,0)" xlink:href="#Y"/><use transform="matrix(0.07407407407407407,0,0,0.07407407407407407,36.96296296296296,0)" xlink:href="#ag"/><use transform="matrix(0.07407407407407407,0,0,0.07407407407407407,51.77777777777777,0)" xlink:href="#aa"/></g><g id="f"><use transform="matrix(0.06172839506172839,0,0,0.06172839506172839,0,0)" xlink:href="#ah"/><use transform="matrix(0.06172839506172839,0,0,0.06172839506172839,17.28395061728395,0)" xlink:href="#ai"/><use transform="matrix(0.06172839506172839,0,0,0.06172839506172839,30.80246913580247,0)" xlink:href="#aj"/><use transform="matrix(0.06172839506172839,0,0,0.06172839506172839,36.97530864197531,0)" xlink:href="#ak"/><use transform="matrix(0.06172839506172839,0,0,0.06172839506172839,50.49382716049383,0)" xlink:href="#al"/><use transform="matrix(0.06172839506172839,0,0,0.06172839506172839,64.01234567901234,0)" xlink:href="#am"/><use transform="matrix(0.06172839506172839,0,0,0.06172839506172839,76.35802469135803,0)" xlink:href="#an"/><use transform="matrix(0.06172839506172839,0,0,0.06172839506172839,88.20987654320987,0)" xlink:href="#ai"/><use transform="matrix(0.06172839506172839,0,0,0.06172839506172839,101.72839506172839,0)" xlink:href="#am"/><use transform="matrix(0.06172839506172839,0,0,0.06172839506172839,114.07407407407408,0)" xlink:href="#ar"/><use transform="matrix(0.06172839506172839,0,0,0.06172839506172839,128.88888888888889,0)" xlink:href="#as"/><use transform="matrix(0.06172839506172839,0,0,0.06172839506172839,135.06172839506172,0)" xlink:href="#ap"/><use transform="matrix(0.06172839506172839,0,0,0.06172839506172839,147.4074074074074,0)" xlink:href="#ap"/><use transform="matrix(0.06172839506172839,0,0,0.06172839506172839,159.75308641975306,0)" xlink:href="#aq"/><use transform="matrix(0.06172839506172839,0,0,0.06172839506172839,173.27160493827157,0)" xlink:href="#at"/><use transform="matrix(0.06172839506172839,0,0,0.06172839506172839,180.61728395061724,0)" xlink:href="#au"/></g><path fill="#333" d="M197 0v-115H63V0H30v-248h33v105h134v-105h34V0h-34" id="ay"/><path fill="#333" d="M141-36C126-15 110 5 73 4 37 3 15-17 15-53c-1-64 63-63 125-63 3-35-9-54-41-54-24 1-41 7-42 31l-33-3c5-37 33-52 76-52 45 0 72 20 72 64v82c-1 20 7 32 28 27v20c-31 9-61-2-59-35zM48-53c0 20 12 33 32 33 41-3 63-29 60-74-43 2-92-5-92 41" id="az"/><path fill="#333" d="M59-47c-2 24 18 29 38 22v24C64 9 27 4 27-40v-127H5v-23h24l9-43h21v43h35v23H59v120" id="aA"/><path fill="#333" d="M24-231v-30h32v30H24zM24 0v-190h32V0H24" id="aB"/><path fill="#333" d="M177-190C167-65 218 103 67 71c-23-6-38-20-44-43l32-5c15 47 100 32 89-28v-30C133-14 115 1 83 1 29 1 15-40 15-95c0-56 16-97 71-98 29-1 48 16 59 35 1-10 0-23 2-32h30zM94-22c36 0 50-32 50-73 0-42-14-75-50-75-39 0-46 34-46 75s6 73 46 73" id="aC"/><g id="g"><use transform="matrix(0.07407407407407407,0,0,0.07407407407407407,0,0)" xlink:href="#ay"/><use transform="matrix(0.07407407407407407,0,0,0.07407407407407407,19.185185185185183,0)" xlink:href="#aa"/><use transform="matrix(0.07407407407407407,0,0,0.07407407407407407,34,0)" xlink:href="#az"/><use transform="matrix(0.07407407407407407,0,0,0.07407407407407407,48.81481481481481,0)" xlink:href="#aA"/><use transform="matrix(0.07407407407407407,0,0,0.07407407407407407,56.22222222222221,0)" xlink:href="#aB"/><use transform="matrix(0.07407407407407407,0,0,0.07407407407407407,62.07407407407406,0)" xlink:href="#ae"/><use transform="matrix(0.07407407407407407,0,0,0.07407407407407407,76.88888888888887,0)" xlink:href="#aC"/></g><path fill="#333" d="M275 0h-61l-44-196L126 0H64L0-248h53L97-49l45-199h58l43 199 44-199h52" id="aD"/><path fill="#333" d="M133-34C117-15 103 5 69 4 32 3 11-16 11-54c-1-60 55-63 116-61 1-26-3-47-28-47-18 1-26 9-28 27l-52-2c7-38 36-58 82-57s74 22 75 68l1 82c-1 14 12 18 25 15v27c-30 8-71 5-69-32zm-48 3c29 0 43-24 42-57-32 0-66-3-65 30 0 17 8 27 23 27" id="aE"/><path fill="#333" d="M147 0L96-86 75-71V0H25v-261h50v150l67-79h53l-66 74L201 0h-54" id="aF"/><path fill="#333" d="M238-95c0 69-44 99-111 99C63 4 22-25 22-93v-155h51v151c-1 38 19 59 55 60 90 1 49-130 58-211h52v153" id="aG"/><g id="h"><use transform="matrix(0.06172839506172839,0,0,0.06172839506172839,0,0)" xlink:href="#aD"/><use transform="matrix(0.06172839506172839,0,0,0.06172839506172839,20.123456790123456,0)" xlink:href="#aE"/><use transform="matrix(0.06172839506172839,0,0,0.06172839506172839,32.46913580246913,0)" xlink:href="#aF"/><use transform="matrix(0.06172839506172839,0,0,0.06172839506172839,44.81481481481481,0)" xlink:href="#ap"/><use transform="matrix(0.06172839506172839,0,0,0.06172839506172839,57.16049382716049,0)" xlink:href="#am"/><use transform="matrix(0.06172839506172839,0,0,0.06172839506172839,69.50617283950616,0)" xlink:href="#aG"/><use transform="matrix(0.06172839506172839,0,0,0.06172839506172839,85.49382716049382,0)" xlink:href="#aq"/><use transform="matrix(0.06172839506172839,0,0,0.06172839506172839,99.01234567901234,0)" xlink:href="#at"/><use transform="matrix(0.06172839506172839,0,0,0.06172839506172839,106.35802469135803,0)" xlink:href="#au"/></g><path fill="#834187" d="M101-200l41-18 12 35-44 11 33 37-32 21-26-44-26 44-33-21 33-37-44-11 12-35 42 18-3-48h38" id="aH"/><path fill="#834187" d="M241-173c-1 82-78 91-166 86L58 0H6l48-248c87 0 188-12 187 75zm-53 2c0-43-48-36-90-36l-15 80c50 0 105 7 105-44" id="aI"/><path fill="#834187" d="M69 3c-96 0-34-126-28-193h49L65-57c6 42 62 18 71-6 14-38 17-86 28-127h50L178 0h-47c0-11 4-26 3-33-14 20-30 37-65 36" id="aJ"/><path fill="#834187" d="M84-151c13-25 34-51 72-40l-8 41C67-170 71-64 56 0H6l36-190h47" id="aK"/><path fill="#834187" d="M156-122c2-23-7-37-28-37-47 0-58 44-58 89 0 24 12 40 36 40 43 0 47-49 50-92zM-8 75l50-265h48c0 10-3 24-3 30 22-50 127-45 121 29-6 73-21 135-92 135-29 0-46-14-55-35L41 75H-8" id="aL"/><path fill="#834187" d="M6 0l51-261h49L55 0H6" id="aM"/><path fill="#834187" d="M114-194c63-2 87 48 72 110H63c-3 28 1 55 31 54 21-1 32-13 37-29l44 13C160-14 137 4 91 4 41 4 11-22 11-73c0-71 33-119 103-121zm30 77c14-47-50-61-67-22-3 6-6 13-8 22h75" id="aN"/><g id="i"><use transform="matrix(0.11111111111111108,0,0,0.11111111111111108,0,0)" xlink:href="#aH"/><use transform="matrix(0.07407407407407401,0,0,0.07407407407407401,15.55555555555555,0)" xlink:href="#aI"/><use transform="matrix(0.07407407407407401,0,0,0.07407407407407401,33.333333333333314,0)" xlink:href="#aJ"/><use transform="matrix(0.07407407407407401,0,0,0.07407407407407401,49.555555555555536,0)" xlink:href="#aK"/><use transform="matrix(0.07407407407407401,0,0,0.07407407407407401,59.92592592592589,0)" xlink:href="#aL"/><use transform="matrix(0.07407407407407401,0,0,0.07407407407407401,76.14814814814811,0)" xlink:href="#aM"/><use transform="matrix(0.07407407407407401,0,0,0.07407407407407401,83.5555555555555,0)" xlink:href="#aN"/></g><path fill="#834187" d="M6 0l48-248h195l-8 40H98l-12 63h132l-7 40H79L66-40h150l-8 40H6" id="aO"/><path fill="#834187" d="M132-28C118-9 101 4 69 4 30 4 10-23 10-62c0-70 24-129 92-132 31-1 47 14 56 35l19-102h49L179 0h-49zM62-69c0 22 7 39 29 39 45-2 54-45 57-90 2-27-10-40-33-40-44 0-53 48-53 91" id="aP"/><path fill="#834187" d="M45-171c29-32 103-29 114 14 2-11 5-23 8-33h47L176-2c-3 70-92 96-155 64C9 56 1 42-1 25l50-5c2 28 48 27 63 11 13-13 20-45 21-66-13 20-30 35-62 36-87 3-60-134-26-172zM94-35c41-3 55-43 55-86 0-24-12-39-35-39-43 0-51 48-51 90 0 22 9 37 31 35" id="aQ"/><path fill="#834187" d="M144-137c-1-29-70-35-71-2 16 41 103 10 103 80C176 9 79 16 32-9 18-17 9-31 4-48l44-6c3 32 80 36 82 1-15-42-103-11-103-82 0-77 157-79 161-8" id="aR"/><g id="j"><use transform="matrix(0.07407407407407401,0,0,0.07407407407407401,0,0)" xlink:href="#aO"/><use transform="matrix(0.07407407407407401,0,0,0.07407407407407401,17.777777777777764,0)" xlink:href="#aP"/><use transform="matrix(0.07407407407407401,0,0,0.07407407407407401,33.99999999999997,0)" xlink:href="#aQ"/><use transform="matrix(0.07407407407407401,0,0,0.07407407407407401,50.22222222222218,0)" xlink:href="#aN"/><use transform="matrix(0.07407407407407401,0,0,0.07407407407407401,65.03703703703698,0)" xlink:href="#aR"/></g><path fill="#834187" d="M41-132l10-50h51l-10 50H41zM16 0l9-49h51L66 0H16" id="aS"/><use transform="matrix(0.06172839506172834,0,0,0.06172839506172834,0,0)" xlink:href="#aS" id="k"/><path d="M151-220L108 0H75l42-220H32l6-28h203l-5 28h-85" id="aT"/><path d="M66-151c12-25 30-51 66-40l-6 26C45-176 58-65 38 0H6l36-190h30" id="aU"/><path d="M165-48c-4 18 1 34 23 27l-3 20c-29 8-62 0-52-35h-2C116-14 99 4 63 4 30 4 8-16 8-49c0-68 71-67 138-67 10-26 0-56-31-54-26 1-42 9-47 31l-32-5c8-67 160-71 144 15-5 28-9 54-15 81zM42-50c3 52 80 24 89-6 7-12 7-24 11-38-47 1-103-4-100 44" id="aV"/><path d="M67-158c22-48 132-52 116 29L158 0h-32l25-140c3-38-53-32-70-12C52-117 51-52 38 0H6l36-190h30" id="aW"/><path d="M55-144c13 50 104 24 104 88C159 21 15 23 1-39l26-10c6 40 102 42 102-4-13-50-104-23-104-87 0-71 143-71 148-8l-29 4c-5-35-85-37-89 0" id="aX"/><path d="M50-231l6-30h32l-6 30H50zM6 0l37-190h31L37 0H6" id="aY"/><path d="M51-54c-9 22 5 41 31 30L79-1C43 14 10-4 19-52l22-115H19l5-23h22l19-43h21l-9 43h35l-4 23H73" id="aZ"/><path d="M30-147c31-64 166-65 159 27C183-49 158 1 86 4 9 8 1-88 30-147zM88-20c53 0 68-48 68-100 0-31-11-51-44-50-52 1-68 46-68 97 0 32 13 53 44 53" id="ba"/><g id="l"><use transform="matrix(0.06172839506172834,0,0,0.06172839506172834,0,0)" xlink:href="#aT"/><use transform="matrix(0.06172839506172834,0,0,0.06172839506172834,11.85185185185184,0)" xlink:href="#aU"/><use transform="matrix(0.06172839506172834,0,0,0.06172839506172834,19.197530864197514,0)" xlink:href="#aV"/><use transform="matrix(0.06172839506172834,0,0,0.06172839506172834,31.54320987654318,0)" xlink:href="#aW"/><use transform="matrix(0.06172839506172834,0,0,0.06172839506172834,43.88888888888885,0)" xlink:href="#aX"/><use transform="matrix(0.06172839506172834,0,0,0.06172839506172834,54.99999999999995,0)" xlink:href="#aY"/><use transform="matrix(0.06172839506172834,0,0,0.06172839506172834,59.87654320987649,0)" xlink:href="#aZ"/><use transform="matrix(0.06172839506172834,0,0,0.06172839506172834,66.04938271604932,0)" xlink:href="#aY"/><use transform="matrix(0.06172839506172834,0,0,0.06172839506172834,70.92592592592587,0)" xlink:href="#ba"/><use transform="matrix(0.06172839506172834,0,0,0.06172839506172834,83.27160493827154,0)" xlink:href="#aW"/><use transform="matrix(0.06172839506172834,0,0,0.06172839506172834,95.6172839506172,0)" xlink:href="#aX"/></g><path d="M67-158c15-20 31-36 64-36 94 0 33 127 27 194h-32l25-140c3-38-53-32-70-12C52-117 51-51 37 0H6l51-261h31" id="bb"/><g id="m"><use transform="matrix(0.06172839506172834,0,0,0.06172839506172834,0,0)" xlink:href="#aZ"/><use transform="matrix(0.06172839506172834,0,0,0.06172839506172834,6.172839506172834,0)" xlink:href="#bb"/><use transform="matrix(0.06172839506172834,0,0,0.06172839506172834,18.5185185185185,0)" xlink:href="#aV"/><use transform="matrix(0.06172839506172834,0,0,0.06172839506172834,30.864197530864168,0)" xlink:href="#aZ"/></g><path d="M44-68c0 29 11 47 38 47 30 0 42-19 51-41l28 9C148-21 126 4 82 4 31 4 10-29 12-85c3-77 74-140 146-93 12 8 15 23 18 40l-31 5c-1-22-13-36-36-36-52 0-65 49-65 101" id="bc"/><g id="n"><use transform="matrix(0.06172839506172834,0,0,0.06172839506172834,0,0)" xlink:href="#bc"/><use transform="matrix(0.06172839506172834,0,0,0.06172839506172834,11.111111111111102,0)" xlink:href="#aV"/><use transform="matrix(0.06172839506172834,0,0,0.06172839506172834,23.45679012345677,0)" xlink:href="#aW"/></g><path d="M6 0l50-261h32L37 0H6" id="bd"/><path d="M198-190L69 30C53 58 25 83-20 72c4-11-1-27 19-22 33-1 43-29 59-52L20-190h32L79-34l84-156h35" id="be"/><g id="o"><use transform="matrix(0.06172839506172834,0,0,0.06172839506172834,0,0)" xlink:href="#ba"/><use transform="matrix(0.06172839506172834,0,0,0.06172839506172834,12.345679012345668,0)" xlink:href="#aW"/><use transform="matrix(0.06172839506172834,0,0,0.06172839506172834,24.691358024691336,0)" xlink:href="#bd"/><use transform="matrix(0.06172839506172834,0,0,0.06172839506172834,29.567901234567877,0)" xlink:href="#be"/></g><path d="M68-162c25-46 127-43 121 31C183-60 169 1 98 4 69 5 53-11 43-31L36 0H5l52-261h31zm88 36c2-27-9-43-34-43-55 0-70 51-70 103 0 29 15 45 43 46 52 0 58-58 61-106" id="bf"/><path d="M111-194c62-3 86 47 72 106H45c-7 38 6 69 45 68 27-1 43-14 53-32l24 11C152-15 129 4 87 4 38 3 12-23 12-71c0-70 32-119 99-123zm44 81c14-66-71-72-95-28-4 8-8 17-11 28h106" id="bg"/><g id="p"><use transform="matrix(0.06172839506172834,0,0,0.06172839506172834,0,0)" xlink:href="#bf"/><use transform="matrix(0.06172839506172834,0,0,0.06172839506172834,12.345679012345668,0)" xlink:href="#bg"/></g><path d="M89 0H52L20-190h33L74-25l89-165h34" id="bh"/><path d="M133-28C103 26-5 8 13-77c13-62 24-115 90-117 29-1 46 15 56 35l19-102h32L160 0h-30zM45-64c-2 27 10 43 35 43 54-1 69-50 69-103 0-29-15-46-42-46-53-1-58 58-62 106" id="bi"/><g id="q"><use transform="matrix(0.06172839506172834,0,0,0.06172839506172834,0,0)" xlink:href="#aV"/><use transform="matrix(0.06172839506172834,0,0,0.06172839506172834,12.345679012345668,0)" xlink:href="#bc"/><use transform="matrix(0.06172839506172834,0,0,0.06172839506172834,23.45679012345677,0)" xlink:href="#bb"/><use transform="matrix(0.06172839506172834,0,0,0.06172839506172834,35.80246913580244,0)" xlink:href="#aY"/><use transform="matrix(0.06172839506172834,0,0,0.06172839506172834,40.67901234567898,0)" xlink:href="#bg"/><use transform="matrix(0.06172839506172834,0,0,0.06172839506172834,53.02469135802465,0)" xlink:href="#bh"/><use transform="matrix(0.06172839506172834,0,0,0.06172839506172834,64.13580246913575,0)" xlink:href="#bg"/><use transform="matrix(0.06172839506172834,0,0,0.06172839506172834,76.48148148148142,0)" xlink:href="#bi"/></g><path d="M248-111c6-24 9-61-24-58-72 9-57 108-77 169h-31l26-142c3-37-50-30-64-10C52-115 50-51 37 0H6l36-190h30c-1 10-6 24-4 32 13-43 101-52 105 5 13-22 29-41 61-41 90 0 28 129 23 194h-31" id="bj"/><path d="M67 3c-93-2-31-127-26-193h32L48-50c-3 39 53 32 70 12 30-34 30-101 43-152h32L157 0h-30c1-10 6-24 4-33-14 20-29 37-64 36" id="bk"/><g id="r"><use transform="matrix(0.06172839506172834,0,0,0.06172839506172834,0,0)" xlink:href="#bj"/><use transform="matrix(0.06172839506172834,0,0,0.06172839506172834,18.456790123456774,0)" xlink:href="#aV"/><use transform="matrix(0.06172839506172834,0,0,0.06172839506172834,30.80246913580244,0)" xlink:href="#aW"/><use transform="matrix(0.06172839506172834,0,0,0.06172839506172834,43.14814814814811,0)" xlink:href="#bk"/><use transform="matrix(0.06172839506172834,0,0,0.06172839506172834,55.49382716049378,0)" xlink:href="#aV"/><use transform="matrix(0.06172839506172834,0,0,0.06172839506172834,67.83950617283945,0)" xlink:href="#bd"/><use transform="matrix(0.06172839506172834,0,0,0.06172839506172834,72.716049382716,0)" xlink:href="#bd"/><use transform="matrix(0.06172839506172834,0,0,0.06172839506172834,77.59259259259254,0)" xlink:href="#be"/></g><path d="M103-194c29 0 47 14 56 36 2-11 5-23 8-32h30L160-5C157 61 82 97 21 62 9 55 4 45 1 30l28-7c7 42 83 31 92-3 4-16 9-38 13-55-13 20-29 36-62 36-40 0-60-25-60-64 0-71 23-131 91-131zm4 24c-53 0-58 54-61 104-2 27 10 44 36 44 49 0 65-50 67-102 1-29-15-46-42-46" id="bl"/><g id="s"><use transform="matrix(0.06172839506172834,0,0,0.06172839506172834,0,0)" xlink:href="#aZ"/><use transform="matrix(0.06172839506172834,0,0,0.06172839506172834,6.172839506172834,0)" xlink:href="#bb"/><use transform="matrix(0.06172839506172834,0,0,0.06172839506172834,18.5185185185185,0)" xlink:href="#aU"/><use transform="matrix(0.06172839506172834,0,0,0.06172839506172834,25.864197530864175,0)" xlink:href="#ba"/><use transform="matrix(0.06172839506172834,0,0,0.06172839506172834,38.209876543209845,0)" xlink:href="#bk"/><use transform="matrix(0.06172839506172834,0,0,0.06172839506172834,50.555555555555515,0)" xlink:href="#bl"/><use transform="matrix(0.06172839506172834,0,0,0.06172839506172834,62.901234567901184,0)" xlink:href="#bb"/></g><g id="t"><use transform="matrix(0.06172839506172834,0,0,0.06172839506172834,0,0)" xlink:href="#aZ"/><use transform="matrix(0.06172839506172834,0,0,0.06172839506172834,6.172839506172834,0)" xlink:href="#bb"/><use transform="matrix(0.06172839506172834,0,0,0.06172839506172834,18.5185185185185,0)" xlink:href="#bg"/></g><path d="M212 0l43-212L151 0h-37L90-212C82-137 65-70 52 0H6l48-248h70l20 187 93-187h69L258 0h-46" id="bm"/><path d="M168 0l21-106H79L58 0H6l48-248h52l-19 99h110l19-99h50L218 0h-50" id="bn"/><path d="M178-136c88 48 22 151-73 140C49-3 12-15 4-64l51-9c1 50 111 53 115 3-16-63-132-20-133-112 0-93 190-91 199-10l-50 12c-4-41-93-50-97-4 7 38 59 32 89 48" id="bo"/><g id="u"><use transform="matrix(0.06172839506172834,0,0,0.06172839506172834,0,0)" xlink:href="#bm"/><use transform="matrix(0.06172839506172834,0,0,0.06172839506172834,18.456790123456774,0)" xlink:href="#bn"/><use transform="matrix(0.06172839506172834,0,0,0.06172839506172834,34.444444444444414,0)" xlink:href="#bo"/></g><path d="M166-52c-4 17 5 29 24 23l-3 27c-30 11-74 1-67-34C105-15 91 4 56 4 23 4 3-15 2-49c0-64 63-67 128-67 10-22 3-53-29-45-13 3-22 10-25 24l-46-5c5-64 156-77 153 0-1 33-11 60-17 90zM97-88c-44-9-64 57-19 57 31 0 42-28 47-57H97" id="bp"/><path d="M151-194c95 0 34 128 28 194h-49l25-134c0-29-45-25-59-9C67-111 69-48 56 0H6l36-190h47l-4 32c15-20 33-36 66-36" id="bq"/><path d="M45-171c29-32 103-29 114 14 2-11 5-23 8-33h47L176-2c-3 70-92 96-155 64C9 56 1 42-1 25l50-5c2 28 48 27 63 11 13-13 20-45 21-66-13 20-30 35-62 36-87 3-60-134-26-172zM94-35c41-3 55-43 55-86 0-24-12-39-35-39-43 0-51 48-51 90 0 22 9 37 31 35" id="br"/><path d="M114-194c63-2 87 48 72 110H63c-3 28 1 55 31 54 21-1 32-13 37-29l44 13C160-14 137 4 91 4 41 4 11-22 11-73c0-71 33-119 103-121zm30 77c14-47-50-61-67-22-3 6-6 13-8 22h75" id="bs"/><path d="M84-151c13-25 34-51 72-40l-8 41C67-170 71-64 56 0H6l36-190h47" id="bt"/><g id="v"><use transform="matrix(0.06172839506172834,0,0,0.06172839506172834,0,0)" xlink:href="#bm"/><use transform="matrix(0.06172839506172834,0,0,0.06172839506172834,18.456790123456774,0)" xlink:href="#bp"/><use transform="matrix(0.06172839506172834,0,0,0.06172839506172834,30.80246913580244,0)" xlink:href="#bq"/><use transform="matrix(0.06172839506172834,0,0,0.06172839506172834,44.320987654320945,0)" xlink:href="#bp"/><use transform="matrix(0.06172839506172834,0,0,0.06172839506172834,56.666666666666615,0)" xlink:href="#br"/><use transform="matrix(0.06172839506172834,0,0,0.06172839506172834,70.18518518518512,0)" xlink:href="#bs"/><use transform="matrix(0.06172839506172834,0,0,0.06172839506172834,82.53086419753079,0)" xlink:href="#bt"/></g><path d="M187 0l-14-72H61L19 0h-37l149-248h38L221 0h-34zm-19-99l-22-123L76-99h92" id="bu"/><g id="w"><use transform="matrix(0.06172839506172834,0,0,0.06172839506172834,0,0)" xlink:href="#bu"/><use transform="matrix(0.06172839506172834,0,0,0.06172839506172834,14.814814814814802,0)" xlink:href="#aW"/><use transform="matrix(0.06172839506172834,0,0,0.06172839506172834,27.160493827160472,0)" xlink:href="#bi"/><use transform="matrix(0.06172839506172834,0,0,0.06172839506172834,39.50617283950614,0)" xlink:href="#aU"/><use transform="matrix(0.06172839506172834,0,0,0.06172839506172834,46.85185185185181,0)" xlink:href="#ba"/><use transform="matrix(0.06172839506172834,0,0,0.06172839506172834,59.19753086419748,0)" xlink:href="#aY"/><use transform="matrix(0.06172839506172834,0,0,0.06172839506172834,64.07407407407402,0)" xlink:href="#bi"/></g><path d="M67-162c32-53 139-36 121 50C175-51 163 2 97 4 68 4 52-11 42-31 38 6 28 39 22 75H-9l50-265h29c-1 10 0 20-3 28zm89 36c0-26-10-43-35-43-54 0-67 50-69 103-1 29 14 45 42 46 53 0 62-58 62-106" id="bv"/><g id="x"><use transform="matrix(0.06172839506172834,0,0,0.06172839506172834,0,0)" xlink:href="#bu"/><use transform="matrix(0.06172839506172834,0,0,0.06172839506172834,14.814814814814802,0)" xlink:href="#bv"/><use transform="matrix(0.06172839506172834,0,0,0.06172839506172834,27.160493827160472,0)" xlink:href="#bv"/></g><g id="y"><use transform="matrix(0.06172839506172834,0,0,0.06172839506172834,0,0)" xlink:href="#ba"/><use transform="matrix(0.06172839506172834,0,0,0.06172839506172834,12.345679012345668,0)" xlink:href="#aU"/></g><path d="M124 0L87-78 21 0h-35l86-98-46-92h33l34 74 61-74h37l-83 92 50 98h-34" id="bw"/><g id="z"><use transform="matrix(0.06172839506172834,0,0,0.06172839506172834,0,0)" xlink:href="#bg"/><use transform="matrix(0.06172839506172834,0,0,0.06172839506172834,12.345679012345668,0)" xlink:href="#bw"/><use transform="matrix(0.06172839506172834,0,0,0.06172839506172834,23.45679012345677,0)" xlink:href="#aZ"/><use transform="matrix(0.06172839506172834,0,0,0.06172839506172834,29.629629629629605,0)" xlink:href="#bg"/><use transform="matrix(0.06172839506172834,0,0,0.06172839506172834,41.975308641975275,0)" xlink:href="#aU"/><use transform="matrix(0.06172839506172834,0,0,0.06172839506172834,49.320987654320945,0)" xlink:href="#aW"/><use transform="matrix(0.06172839506172834,0,0,0.06172839506172834,61.666666666666615,0)" xlink:href="#aV"/><use transform="matrix(0.06172839506172834,0,0,0.06172839506172834,74.01234567901228,0)" xlink:href="#bd"/></g><g id="A"><use transform="matrix(0.06172839506172834,0,0,0.06172839506172834,0,0)" xlink:href="#aY"/><use transform="matrix(0.06172839506172834,0,0,0.06172839506172834,4.876543209876539,0)" xlink:href="#aW"/><use transform="matrix(0.06172839506172834,0,0,0.06172839506172834,17.222222222222207,0)" xlink:href="#bv"/><use transform="matrix(0.06172839506172834,0,0,0.06172839506172834,29.567901234567877,0)" xlink:href="#bk"/><use transform="matrix(0.06172839506172834,0,0,0.06172839506172834,41.91358024691355,0)" xlink:href="#aZ"/><use transform="matrix(0.06172839506172834,0,0,0.06172839506172834,48.08641975308638,0)" xlink:href="#aX"/></g><path fill="#0c7cba" d="M101-200l41-18 12 35-44 11 33 37-32 21-26-44-26 44-33-21 33-37-44-11 12-35 42 18-3-48h38" id="bx"/><path fill="#0c7cba" d="M240-76C239 26 104-5 6 0l48-248c79 4 193-21 193 58 0 38-25 53-57 60 29 5 49 21 50 54zm-45-106c0-40-58-24-96-27l-12 61c45-3 108 12 108-34zm-7 105c0-44-65-31-109-33L66-38c51-3 122 14 122-39" id="by"/><path fill="#0c7cba" d="M6 0l51-261h49L55 0H6" id="bz"/><path fill="#0c7cba" d="M69 3c-96 0-34-126-28-193h49L65-57c6 42 62 18 71-6 14-38 17-86 28-127h50L178 0h-47c0-11 4-26 3-33-14 20-30 37-65 36" id="bA"/><path fill="#0c7cba" d="M114-194c63-2 87 48 72 110H63c-3 28 1 55 31 54 21-1 32-13 37-29l44 13C160-14 137 4 91 4 41 4 11-22 11-73c0-71 33-119 103-121zm30 77c14-47-50-61-67-22-3 6-6 13-8 22h75" id="bB"/><g id="B"><use transform="matrix(0.11111111111111108,0,0,0.11111111111111108,0,0)" xlink:href="#bx"/><use transform="matrix(0.07407407407407401,0,0,0.07407407407407401,15.55555555555555,0)" xlink:href="#by"/><use transform="matrix(0.07407407407407401,0,0,0.07407407407407401,34.74074074074072,0)" xlink:href="#bz"/><use transform="matrix(0.07407407407407401,0,0,0.07407407407407401,42.148148148148124,0)" xlink:href="#bA"/><use transform="matrix(0.07407407407407401,0,0,0.07407407407407401,58.37037037037034,0)" xlink:href="#bB"/></g><path fill="#0c7cba" d="M6 0l48-248h195l-8 40H98l-12 63h132l-7 40H79L66-40h150l-8 40H6" id="bC"/><path fill="#0c7cba" d="M132-28C118-9 101 4 69 4 30 4 10-23 10-62c0-70 24-129 92-132 31-1 47 14 56 35l19-102h49L179 0h-49zM62-69c0 22 7 39 29 39 45-2 54-45 57-90 2-27-10-40-33-40-44 0-53 48-53 91" id="bD"/><path fill="#0c7cba" d="M45-171c29-32 103-29 114 14 2-11 5-23 8-33h47L176-2c-3 70-92 96-155 64C9 56 1 42-1 25l50-5c2 28 48 27 63 11 13-13 20-45 21-66-13 20-30 35-62 36-87 3-60-134-26-172zM94-35c41-3 55-43 55-86 0-24-12-39-35-39-43 0-51 48-51 90 0 22 9 37 31 35" id="bE"/><path fill="#0c7cba" d="M144-137c-1-29-70-35-71-2 16 41 103 10 103 80C176 9 79 16 32-9 18-17 9-31 4-48l44-6c3 32 80 36 82 1-15-42-103-11-103-82 0-77 157-79 161-8" id="bF"/><g id="C"><use transform="matrix(0.07407407407407401,0,0,0.07407407407407401,0,0)" xlink:href="#bC"/><use transform="matrix(0.07407407407407401,0,0,0.07407407407407401,17.777777777777764,0)" xlink:href="#bD"/><use transform="matrix(0.07407407407407401,0,0,0.07407407407407401,33.99999999999997,0)" xlink:href="#bE"/><use transform="matrix(0.07407407407407401,0,0,0.07407407407407401,50.22222222222218,0)" xlink:href="#bB"/><use transform="matrix(0.07407407407407401,0,0,0.07407407407407401,65.03703703703698,0)" xlink:href="#bF"/></g><g id="D"><use transform="matrix(0.06172839506172834,0,0,0.06172839506172834,0,0)" xlink:href="#aV"/><use transform="matrix(0.06172839506172834,0,0,0.06172839506172834,12.345679012345668,0)" xlink:href="#aU"/><use transform="matrix(0.06172839506172834,0,0,0.06172839506172834,19.69135802469134,0)" xlink:href="#bg"/></g><g id="E"><use transform="matrix(0.06172839506172834,0,0,0.06172839506172834,0,0)" xlink:href="#bf"/><use transform="matrix(0.06172839506172834,0,0,0.06172839506172834,12.345679012345668,0)" xlink:href="#ba"/><use transform="matrix(0.06172839506172834,0,0,0.06172839506172834,24.691358024691336,0)" xlink:href="#aZ"/><use transform="matrix(0.06172839506172834,0,0,0.06172839506172834,30.86419753086417,0)" xlink:href="#bb"/></g><g id="F"><use transform="matrix(0.06172839506172834,0,0,0.06172839506172834,0,0)" xlink:href="#aZ"/><use transform="matrix(0.06172839506172834,0,0,0.06172839506172834,6.172839506172834,0)" xlink:href="#bb"/><use transform="matrix(0.06172839506172834,0,0,0.06172839506172834,18.5185185185185,0)" xlink:href="#bg"/></g><path d="M69 3c-96 0-34-126-28-193h49L65-57c6 42 62 18 71-6 14-38 17-86 28-127h50L178 0h-47c0-11 4-26 3-33-14 20-30 37-65 36" id="bG"/><path d="M72-63c-8 23 5 39 32 30L98-1C54 14 12-6 23-64l18-93H15l7-33h28l24-45h31l-8 45h35l-6 33H90" id="bH"/><path d="M124-194c51 0 84 22 84 74C207-44 167 4 94 4 43 4 11-23 11-74c0-74 41-120 113-120zM99-30c46 0 58-42 58-86 0-27-11-44-37-44-44 0-55 40-57 84-1 27 10 45 36 46" id="bI"/><path d="M255-194c90 0 29 129 24 194h-49l25-136c-7-39-53-14-60 9-12 38-18 85-28 127h-49l25-136c2-29-39-23-50-7C69-108 68-47 56 0H6l36-190h48c-1 10-6 24-4 32 12-20 27-36 57-36s46 15 50 41c14-21 29-41 62-41" id="bJ"/><path d="M132-28C118-9 101 4 69 4 30 4 10-23 10-62c0-70 24-129 92-132 31-1 47 14 56 35l19-102h49L179 0h-49zM62-69c0 22 7 39 29 39 45-2 54-45 57-90 2-27-10-40-33-40-44 0-53 48-53 91" id="bK"/><g id="G"><use transform="matrix(0.06172839506172834,0,0,0.06172839506172834,0,0)" xlink:href="#bp"/><use transform="matrix(0.06172839506172834,0,0,0.06172839506172834,12.345679012345668,0)" xlink:href="#bG"/><use transform="matrix(0.06172839506172834,0,0,0.06172839506172834,25.864197530864175,0)" xlink:href="#bH"/><use transform="matrix(0.06172839506172834,0,0,0.06172839506172834,33.209876543209845,0)" xlink:href="#bI"/><use transform="matrix(0.06172839506172834,0,0,0.06172839506172834,46.72839506172835,0)" xlink:href="#bJ"/><use transform="matrix(0.06172839506172834,0,0,0.06172839506172834,66.48148148148142,0)" xlink:href="#bp"/><use transform="matrix(0.06172839506172834,0,0,0.06172839506172834,78.8271604938271,0)" xlink:href="#bH"/><use transform="matrix(0.06172839506172834,0,0,0.06172839506172834,86.17283950617276,0)" xlink:href="#bs"/><use transform="matrix(0.06172839506172834,0,0,0.06172839506172834,98.51851851851843,0)" xlink:href="#bK"/></g><path d="M87-160c15-17 32-34 63-34 99 1 59 172-1 192-36 12-78 0-87-29L54 0H6l52-261h49zm71 38c0-24-5-37-29-37-46 0-55 46-57 89-1 25 12 40 35 40 44 0 51-50 51-92" id="bL"/><g id="H"><use transform="matrix(0.06172839506172834,0,0,0.06172839506172834,0,0)" xlink:href="#bs"/><use transform="matrix(0.06172839506172834,0,0,0.06172839506172834,12.345679012345668,0)" xlink:href="#bJ"/><use transform="matrix(0.06172839506172834,0,0,0.06172839506172834,32.09876543209874,0)" xlink:href="#bL"/><use transform="matrix(0.06172839506172834,0,0,0.06172839506172834,45.61728395061724,0)" xlink:href="#bs"/><use transform="matrix(0.06172839506172834,0,0,0.06172839506172834,57.96296296296291,0)" xlink:href="#bK"/><use transform="matrix(0.06172839506172834,0,0,0.06172839506172834,71.48148148148142,0)" xlink:href="#bK"/><use transform="matrix(0.06172839506172834,0,0,0.06172839506172834,84.99999999999993,0)" xlink:href="#bs"/><use transform="matrix(0.06172839506172834,0,0,0.06172839506172834,97.3456790123456,0)" xlink:href="#bK"/></g><path d="M67-101c-8 29-7 73 27 71 23-2 32-16 39-37l48 9C170-19 141 4 91 4 36 4 7-28 12-86c6-75 61-124 140-103 26 7 40 29 43 59l-50 4c-1-20-9-34-29-34-35 0-41 29-49 59" id="bM"/><g id="I"><use transform="matrix(0.06172839506172834,0,0,0.06172839506172834,0,0)" xlink:href="#bM"/><use transform="matrix(0.06172839506172834,0,0,0.06172839506172834,12.345679012345668,0)" xlink:href="#bI"/><use transform="matrix(0.06172839506172834,0,0,0.06172839506172834,25.864197530864175,0)" xlink:href="#bK"/><use transform="matrix(0.06172839506172834,0,0,0.06172839506172834,39.38271604938268,0)" xlink:href="#bs"/></g><path d="M76-167L44 0H12l33-167H18l4-23h27c3-47 25-81 82-69l-4 24c-35-8-44 15-46 45h37l-5 23H76" id="bN"/><g id="J"><use transform="matrix(0.06172839506172834,0,0,0.06172839506172834,0,0)" xlink:href="#ba"/><use transform="matrix(0.06172839506172834,0,0,0.06172839506172834,12.345679012345668,0)" xlink:href="#bN"/></g><path d="M18-82l6-28h88l-6 28H18" id="bO"/><g id="K"><use transform="matrix(0.06172839506172834,0,0,0.06172839506172834,0,0)" xlink:href="#bj"/><use transform="matrix(0.06172839506172834,0,0,0.06172839506172834,18.456790123456774,0)" xlink:href="#aY"/><use transform="matrix(0.06172839506172834,0,0,0.06172839506172834,23.333333333333314,0)" xlink:href="#bc"/><use transform="matrix(0.06172839506172834,0,0,0.06172839506172834,34.444444444444414,0)" xlink:href="#aU"/><use transform="matrix(0.06172839506172834,0,0,0.06172839506172834,41.790123456790084,0)" xlink:href="#ba"/><use transform="matrix(0.06172839506172834,0,0,0.06172839506172834,54.135802469135754,0)" xlink:href="#bO"/><use transform="matrix(0.06172839506172834,0,0,0.06172839506172834,61.481481481481424,0)" xlink:href="#bc"/><use transform="matrix(0.06172839506172834,0,0,0.06172839506172834,72.59259259259252,0)" xlink:href="#ba"/><use transform="matrix(0.06172839506172834,0,0,0.06172839506172834,84.9382716049382,0)" xlink:href="#aW"/><use transform="matrix(0.06172839506172834,0,0,0.06172839506172834,97.28395061728386,0)" xlink:href="#aZ"/><use transform="matrix(0.06172839506172834,0,0,0.06172839506172834,103.4567901234567,0)" xlink:href="#aU"/><use transform="matrix(0.06172839506172834,0,0,0.06172839506172834,110.80246913580237,0)" xlink:href="#ba"/><use transform="matrix(0.06172839506172834,0,0,0.06172839506172834,123.14814814814804,0)" xlink:href="#bd"/><use transform="matrix(0.06172839506172834,0,0,0.06172839506172834,128.02469135802457,0)" xlink:href="#bd"/><use transform="matrix(0.06172839506172834,0,0,0.06172839506172834,132.9012345679011,0)" xlink:href="#bg"/><use transform="matrix(0.06172839506172834,0,0,0.06172839506172834,145.24691358024677,0)" xlink:href="#aU"/></g><g id="L"><use transform="matrix(0.06172839506172834,0,0,0.06172839506172834,0,0)" xlink:href="#aV"/><use transform="matrix(0.06172839506172834,0,0,0.06172839506172834,12.345679012345668,0)" xlink:href="#aW"/><use transform="matrix(0.06172839506172834,0,0,0.06172839506172834,24.691358024691336,0)" xlink:href="#bi"/></g><g id="M"><use transform="matrix(0.06172839506172834,0,0,0.06172839506172834,0,0)" xlink:href="#aV"/><use transform="matrix(0.06172839506172834,0,0,0.06172839506172834,12.345679012345668,0)" xlink:href="#bd"/><use transform="matrix(0.06172839506172834,0,0,0.06172839506172834,17.222222222222207,0)" xlink:href="#aX"/><use transform="matrix(0.06172839506172834,0,0,0.06172839506172834,28.333333333333307,0)" xlink:href="#ba"/></g><g id="N"><use transform="matrix(0.06172839506172834,0,0,0.06172839506172834,0,0)" xlink:href="#aZ"/><use transform="matrix(0.06172839506172834,0,0,0.06172839506172834,6.172839506172834,0)" xlink:href="#bb"/><use transform="matrix(0.06172839506172834,0,0,0.06172839506172834,18.5185185185185,0)" xlink:href="#bg"/></g><g id="O"><use transform="matrix(0.06172839506172834,0,0,0.06172839506172834,0,0)" xlink:href="#bm"/><use transform="matrix(0.06172839506172834,0,0,0.06172839506172834,18.456790123456774,0)" xlink:href="#bn"/><use transform="matrix(0.06172839506172834,0,0,0.06172839506172834,34.444444444444414,0)" xlink:href="#bo"/></g><g id="P"><use transform="matrix(0.06172839506172834,0,0,0.06172839506172834,0,0)" xlink:href="#bm"/><use transform="matrix(0.06172839506172834,0,0,0.06172839506172834,18.456790123456774,0)" xlink:href="#bp"/><use transform="matrix(0.06172839506172834,0,0,0.06172839506172834,30.80246913580244,0)" xlink:href="#bq"/><use transform="matrix(0.06172839506172834,0,0,0.06172839506172834,44.320987654320945,0)" xlink:href="#bp"/><use transform="matrix(0.06172839506172834,0,0,0.06172839506172834,56.666666666666615,0)" xlink:href="#br"/><use transform="matrix(0.06172839506172834,0,0,0.06172839506172834,70.18518518518512,0)" xlink:href="#bs"/><use transform="matrix(0.06172839506172834,0,0,0.06172839506172834,82.53086419753079,0)" xlink:href="#bt"/></g><g id="Q"><use transform="matrix(0.06172839506172834,0,0,0.06172839506172834,0,0)" xlink:href="#bu"/><use transform="matrix(0.06172839506172834,0,0,0.06172839506172834,14.814814814814802,0)" xlink:href="#aW"/><use transform="matrix(0.06172839506172834,0,0,0.06172839506172834,27.160493827160472,0)" xlink:href="#bi"/><use transform="matrix(0.06172839506172834,0,0,0.06172839506172834,39.50617283950614,0)" xlink:href="#aU"/><use transform="matrix(0.06172839506172834,0,0,0.06172839506172834,46.85185185185181,0)" xlink:href="#ba"/><use transform="matrix(0.06172839506172834,0,0,0.06172839506172834,59.19753086419748,0)" xlink:href="#aY"/><use transform="matrix(0.06172839506172834,0,0,0.06172839506172834,64.07407407407402,0)" xlink:href="#bi"/></g><g id="R"><use transform="matrix(0.06172839506172834,0,0,0.06172839506172834,0,0)" xlink:href="#bu"/><use transform="matrix(0.06172839506172834,0,0,0.06172839506172834,14.814814814814802,0)" xlink:href="#bv"/><use transform="matrix(0.06172839506172834,0,0,0.06172839506172834,27.160493827160472,0)" xlink:href="#bv"/></g><path fill="#333" d="M205 0l-28-72H64L36 0H1l101-248h38L239 0h-34zm-38-99l-47-123c-12 45-31 82-46 123h93" id="bP"/><path fill="#333" d="M143 0L79-87 56-68V0H24v-261h32v163l83-92h37l-77 82L181 0h-38" id="bQ"/><g id="S"><use transform="matrix(0.07407407407407407,0,0,0.07407407407407407,0,0)" xlink:href="#bP"/><use transform="matrix(0.07407407407407407,0,0,0.07407407407407407,17.25925925925926,0)" xlink:href="#Z"/><use transform="matrix(0.07407407407407407,0,0,0.07407407407407407,36.44444444444444,0)" xlink:href="#az"/><use transform="matrix(0.07407407407407407,0,0,0.07407407407407407,51.25925925925926,0)" xlink:href="#bQ"/><use transform="matrix(0.07407407407407407,0,0,0.07407407407407407,64.59259259259258,0)" xlink:href="#aa"/></g><path fill="#333" d="M140-251c81 0 123 46 123 126C263-46 219 4 140 4 59 4 17-45 17-125s42-126 123-126zm0 227c63 0 89-41 89-101s-29-99-89-99c-61 0-89 39-89 99S79-25 140-24" id="bR"/><path fill="#333" d="M63-220v92h138v28H63V0H30v-248h175v28H63" id="bS"/><g id="T"><use transform="matrix(0.07407407407407407,0,0,0.07407407407407407,0,0)" xlink:href="#bR"/><use transform="matrix(0.07407407407407407,0,0,0.07407407407407407,20.74074074074074,0)" xlink:href="#bS"/><use transform="matrix(0.07407407407407407,0,0,0.07407407407407407,36.96296296296296,0)" xlink:href="#bS"/></g><path fill="#333" d="M186 0v-106H76V0H24v-248h52v99h110v-99h50V0h-50" id="bT"/><path fill="#333" d="M115-3C79 11 28 4 28-45v-112H4v-33h27l15-45h31v45h36v33H77v99c-1 23 16 31 38 25v30" id="bU"/><g id="U"><use transform="matrix(0.06172839506172839,0,0,0.06172839506172839,0,0)" xlink:href="#bT"/><use transform="matrix(0.06172839506172839,0,0,0.06172839506172839,15.987654320987653,0)" xlink:href="#ap"/><use transform="matrix(0.06172839506172839,0,0,0.06172839506172839,28.333333333333332,0)" xlink:href="#aE"/><use transform="matrix(0.06172839506172839,0,0,0.06172839506172839,40.67901234567901,0)" xlink:href="#bU"/><use transform="matrix(0.06172839506172839,0,0,0.06172839506172839,48.02469135802469,0)" xlink:href="#at"/><use transform="matrix(0.06172839506172839,0,0,0.06172839506172839,55.37037037037037,0)" xlink:href="#au"/></g><path fill="#333" d="M85 4C-2 5 27-109 22-190h50c7 57-23 150 33 157 60-5 35-97 40-157h50l1 190h-47c-2-12 1-28-3-38-12 25-28 42-61 42" id="bV"/><path fill="#333" d="M135-150c-39-12-60 13-60 57V0H25l-1-190h47c2 13-1 29 3 40 6-28 27-53 61-41v41" id="bW"/><path fill="#333" d="M140-251c80 0 125 45 125 126S219 4 139 4C58 4 15-44 15-125s44-126 125-126zm-1 214c52 0 73-35 73-88 0-50-21-86-72-86-52 0-73 35-73 86s22 88 72 88" id="bX"/><path fill="#333" d="M121-226c-27-7-43 5-38 36h38v33H83V0H34v-157H6v-33h28c-9-59 32-81 87-68v32" id="bY"/><g id="V"><use transform="matrix(0.06172839506172839,0,0,0.06172839506172839,0,0)" xlink:href="#an"/><use transform="matrix(0.06172839506172839,0,0,0.06172839506172839,11.851851851851851,0)" xlink:href="#bV"/><use transform="matrix(0.06172839506172839,0,0,0.06172839506172839,25.370370370370367,0)" xlink:href="#bW"/><use transform="matrix(0.06172839506172839,0,0,0.06172839506172839,34.01234567901234,0)" xlink:href="#ak"/><use transform="matrix(0.06172839506172839,0,0,0.06172839506172839,47.53086419753086,0)" xlink:href="#am"/><use transform="matrix(0.06172839506172839,0,0,0.06172839506172839,59.87654320987654,0)" xlink:href="#bX"/><use transform="matrix(0.06172839506172839,0,0,0.06172839506172839,77.16049382716048,0)" xlink:href="#bY"/><use transform="matrix(0.06172839506172839,0,0,0.06172839506172839,84.50617283950616,0)" xlink:href="#bY"/><use transform="matrix(0.06172839506172839,0,0,0.06172839506172839,91.85185185185185,0)" xlink:href="#at"/><use transform="matrix(0.06172839506172839,0,0,0.06172839506172839,99.19753086419753,0)" xlink:href="#au"/></g><g id="W"><use transform="matrix(0.06172839506172839,0,0,0.06172839506172839,0,0)" xlink:href="#as"/><use transform="matrix(0.06172839506172839,0,0,0.06172839506172839,6.172839506172839,0)" xlink:href="#ai"/><use transform="matrix(0.06172839506172839,0,0,0.06172839506172839,19.691358024691358,0)" xlink:href="#ai"/><use transform="matrix(0.06172839506172839,0,0,0.06172839506172839,33.20987654320987,0)" xlink:href="#aq"/><use transform="matrix(0.06172839506172839,0,0,0.06172839506172839,46.72839506172839,0)" xlink:href="#at"/><use transform="matrix(0.06172839506172839,0,0,0.06172839506172839,54.07407407407407,0)" xlink:href="#au"/></g></defs></g></svg>